<?xml version="1.0" encoding="UTF-8"?>
<svg id="Vrstva_1" data-name="Vrstva 1" xmlns="http://www.w3.org/2000/svg" viewBox="0 0 628.38 1869.48">
  <defs>
    <style>
      .cls-1 {
        opacity: .3;
      }

      .cls-2 {
        fill: #3c3b3a;
        stroke-width: 0px;
      }
    </style>
  </defs>
  <g class="cls-1">
    <path class="cls-2" d="M420.57,372.74h-212.76C93.04,372.74,0,465.78,0,580.55h0v441.97c0,30.29,24.55,54.84,54.84,54.84h0c30.29,0,54.84-24.55,54.84-54.84v-431.25c0-5.92,4.8-10.72,10.72-10.72h0c5.92,0,10.72,4.8,10.72,10.72v1192.03c0,47.59,38.58,86.18,86.18,86.18h0c47.59,0,86.18-38.58,86.18-86.18v-511.6c0-5.92,4.8-10.72,10.72-10.72h0c5.92,0,10.72,4.8,10.72,10.72v511.6c0,47.59,38.58,86.18,86.18,86.18h0c47.59,0,86.18-38.58,86.18-86.18V591.27c0-5.92,4.8-10.72,10.72-10.72h0c5.92,0,10.72,4.8,10.72,10.72v431.25c0,30.29,24.55,54.84,54.84,54.84h0c30.29,0,54.84-24.55,54.84-54.84v-441.97h0c0-114.77-93.04-207.81-207.81-207.81Z"/>
    <circle class="cls-2" cx="314.19" cy="169.88" r="169.88" transform="translate(-28.1 271.92) rotate(-45)"/>
  </g>
</svg>